<?xml version="1.0" encoding="UTF-8"?>
<svg xmlns="http://www.w3.org/2000/svg" xmlns:xlink="http://www.w3.org/1999/xlink" width="75px" height="74.999997px" viewBox="0 0 75 74.999997" version="1.2">
<defs>
<clipPath id="clip1">
  <path d="M 3.601562 3.601562 L 71.101562 3.601562 L 71.101562 71.101562 L 3.601562 71.101562 Z M 3.601562 3.601562 "/>
</clipPath>
</defs>
<g id="surface1">
<g clip-path="url(#clip1)" clip-rule="nonzero">
<path style=" stroke:none;fill-rule:nonzero;fill:rgb(100%,100%,100%);fill-opacity:1;" d="M 60.882812 71.101562 L 13.820312 71.101562 C 8.183594 71.101562 3.601562 66.515625 3.601562 60.882812 L 3.601562 13.820312 C 3.601562 8.183594 8.183594 3.601562 13.820312 3.601562 L 60.882812 3.601562 C 66.515625 3.601562 71.101562 8.183594 71.101562 13.820312 L 71.101562 60.882812 C 71.101562 66.515625 66.515625 71.101562 60.882812 71.101562 Z M 13.820312 8.101562 C 10.664062 8.101562 8.101562 10.664062 8.101562 13.820312 L 8.101562 60.882812 C 8.101562 64.035156 10.664062 66.601562 13.820312 66.601562 L 60.882812 66.601562 C 64.035156 66.601562 66.601562 64.035156 66.601562 60.882812 L 66.601562 13.820312 C 66.601562 10.664062 64.035156 8.101562 60.882812 8.101562 Z M 13.820312 8.101562 "/>
</g>
<path style=" stroke:none;fill-rule:nonzero;fill:rgb(100%,100%,100%);fill-opacity:1;" d="M 45.007812 37.351562 C 45.007812 37.769531 44.96875 38.183594 44.886719 38.59375 C 44.804688 39.003906 44.683594 39.402344 44.523438 39.789062 C 44.363281 40.175781 44.167969 40.542969 43.933594 40.890625 C 43.703125 41.238281 43.4375 41.5625 43.140625 41.859375 C 42.84375 42.152344 42.523438 42.417969 42.175781 42.652344 C 41.828125 42.882812 41.460938 43.078125 41.074219 43.238281 C 40.6875 43.398438 40.289062 43.519531 39.875 43.601562 C 39.464844 43.683594 39.050781 43.726562 38.632812 43.726562 C 38.214844 43.726562 37.800781 43.683594 37.390625 43.601562 C 36.980469 43.519531 36.582031 43.398438 36.195312 43.238281 C 35.808594 43.078125 35.441406 42.882812 35.089844 42.652344 C 34.742188 42.417969 34.421875 42.152344 34.125 41.859375 C 33.828125 41.5625 33.566406 41.238281 33.332031 40.890625 C 33.101562 40.542969 32.902344 40.175781 32.742188 39.789062 C 32.582031 39.402344 32.460938 39.003906 32.378906 38.59375 C 32.300781 38.183594 32.257812 37.769531 32.257812 37.351562 C 32.257812 36.929688 32.300781 36.515625 32.378906 36.105469 C 32.460938 35.695312 32.582031 35.296875 32.742188 34.910156 C 32.902344 34.523438 33.101562 34.15625 33.332031 33.808594 C 33.566406 33.460938 33.828125 33.136719 34.125 32.84375 C 34.421875 32.546875 34.742188 32.28125 35.089844 32.050781 C 35.441406 31.816406 35.808594 31.621094 36.195312 31.460938 C 36.582031 31.300781 36.980469 31.179688 37.390625 31.097656 C 37.800781 31.015625 38.214844 30.976562 38.632812 30.976562 C 39.050781 30.976562 39.464844 31.015625 39.875 31.097656 C 40.289062 31.179688 40.6875 31.300781 41.074219 31.460938 C 41.460938 31.621094 41.828125 31.816406 42.175781 32.050781 C 42.523438 32.28125 42.84375 32.546875 43.140625 32.84375 C 43.4375 33.136719 43.703125 33.460938 43.933594 33.808594 C 44.167969 34.15625 44.363281 34.523438 44.523438 34.910156 C 44.683594 35.296875 44.804688 35.695312 44.886719 36.105469 C 44.96875 36.515625 45.007812 36.929688 45.007812 37.351562 Z M 45.007812 37.351562 "/>
</g>
</svg>
