<?xml version="1.0" encoding="UTF-8"?>
<svg xmlns="http://www.w3.org/2000/svg" xmlns:xlink="http://www.w3.org/1999/xlink" width="75px" height="74.999997px" viewBox="0 0 75 74.999997" version="1.2">
<defs>
<clipPath id="clip1">
  <path d="M 3.636719 3.636719 L 71.136719 3.636719 L 71.136719 71.136719 L 3.636719 71.136719 Z M 3.636719 3.636719 "/>
</clipPath>
</defs>
<g id="surface1">
<g clip-path="url(#clip1)" clip-rule="nonzero">
<path style=" stroke:none;fill-rule:nonzero;fill:rgb(100%,100%,100%);fill-opacity:1;" d="M 60.917969 71.136719 L 13.855469 71.136719 C 8.222656 71.136719 3.636719 66.554688 3.636719 60.917969 L 3.636719 13.855469 C 3.636719 8.222656 8.222656 3.636719 13.855469 3.636719 L 60.917969 3.636719 C 66.554688 3.636719 71.136719 8.222656 71.136719 13.855469 L 71.136719 60.917969 C 71.136719 66.554688 66.554688 71.136719 60.917969 71.136719 Z M 13.855469 8.136719 C 10.703125 8.136719 8.136719 10.703125 8.136719 13.855469 L 8.136719 60.917969 C 8.136719 64.070312 10.703125 66.636719 13.855469 66.636719 L 60.917969 66.636719 C 64.070312 66.636719 66.636719 64.070312 66.636719 60.917969 L 66.636719 13.855469 C 66.636719 10.703125 64.070312 8.136719 60.917969 8.136719 Z M 13.855469 8.136719 "/>
</g>
<path style=" stroke:none;fill-rule:nonzero;fill:rgb(100%,100%,100%);fill-opacity:1;" d="M 30.550781 50.601562 C 30.550781 51.019531 30.507812 51.433594 30.425781 51.84375 C 30.34375 52.253906 30.226562 52.652344 30.066406 53.039062 C 29.90625 53.425781 29.707031 53.792969 29.476562 54.140625 C 29.242188 54.488281 28.980469 54.8125 28.683594 55.109375 C 28.386719 55.402344 28.066406 55.667969 27.714844 55.902344 C 27.367188 56.132812 27 56.328125 26.613281 56.488281 C 26.226562 56.648438 25.828125 56.769531 25.417969 56.851562 C 25.007812 56.933594 24.59375 56.976562 24.175781 56.976562 C 23.757812 56.976562 23.339844 56.933594 22.929688 56.851562 C 22.519531 56.769531 22.121094 56.648438 21.734375 56.488281 C 21.347656 56.328125 20.980469 56.132812 20.632812 55.902344 C 20.285156 55.667969 19.964844 55.402344 19.667969 55.109375 C 19.371094 54.8125 19.105469 54.488281 18.875 54.140625 C 18.640625 53.792969 18.445312 53.425781 18.285156 53.039062 C 18.125 52.652344 18.003906 52.253906 17.921875 51.84375 C 17.839844 51.433594 17.800781 51.019531 17.800781 50.601562 C 17.800781 50.179688 17.839844 49.765625 17.921875 49.355469 C 18.003906 48.945312 18.125 48.546875 18.285156 48.160156 C 18.445312 47.773438 18.640625 47.40625 18.875 47.058594 C 19.105469 46.710938 19.371094 46.386719 19.667969 46.09375 C 19.964844 45.796875 20.285156 45.53125 20.632812 45.300781 C 20.980469 45.066406 21.347656 44.871094 21.734375 44.710938 C 22.121094 44.550781 22.519531 44.429688 22.929688 44.347656 C 23.339844 44.265625 23.757812 44.226562 24.175781 44.226562 C 24.59375 44.226562 25.007812 44.265625 25.417969 44.347656 C 25.828125 44.429688 26.226562 44.550781 26.613281 44.710938 C 27 44.871094 27.367188 45.066406 27.714844 45.300781 C 28.066406 45.53125 28.386719 45.796875 28.683594 46.09375 C 28.980469 46.386719 29.242188 46.710938 29.476562 47.058594 C 29.707031 47.40625 29.90625 47.773438 30.066406 48.160156 C 30.226562 48.546875 30.34375 48.945312 30.425781 49.355469 C 30.507812 49.765625 30.550781 50.179688 30.550781 50.601562 Z M 30.550781 50.601562 "/>
<path style=" stroke:none;fill-rule:nonzero;fill:rgb(100%,100%,100%);fill-opacity:1;" d="M 56.976562 24.175781 C 56.976562 24.59375 56.933594 25.007812 56.851562 25.417969 C 56.769531 25.828125 56.648438 26.226562 56.488281 26.613281 C 56.328125 27 56.132812 27.367188 55.902344 27.714844 C 55.667969 28.066406 55.402344 28.386719 55.109375 28.683594 C 54.8125 28.980469 54.488281 29.242188 54.140625 29.476562 C 53.792969 29.707031 53.425781 29.902344 53.039062 30.066406 C 52.652344 30.226562 52.253906 30.34375 51.84375 30.425781 C 51.433594 30.507812 51.019531 30.550781 50.601562 30.550781 C 50.179688 30.550781 49.765625 30.507812 49.355469 30.425781 C 48.945312 30.34375 48.546875 30.226562 48.160156 30.066406 C 47.773438 29.902344 47.40625 29.707031 47.058594 29.476562 C 46.710938 29.242188 46.386719 28.980469 46.09375 28.683594 C 45.796875 28.386719 45.53125 28.066406 45.300781 27.714844 C 45.066406 27.367188 44.871094 27 44.710938 26.613281 C 44.550781 26.226562 44.429688 25.828125 44.347656 25.417969 C 44.265625 25.007812 44.226562 24.59375 44.226562 24.175781 C 44.226562 23.757812 44.265625 23.339844 44.347656 22.929688 C 44.429688 22.519531 44.550781 22.121094 44.710938 21.734375 C 44.871094 21.347656 45.066406 20.980469 45.300781 20.632812 C 45.53125 20.285156 45.796875 19.964844 46.09375 19.667969 C 46.386719 19.371094 46.710938 19.105469 47.058594 18.875 C 47.40625 18.640625 47.773438 18.445312 48.160156 18.285156 C 48.546875 18.125 48.945312 18.003906 49.355469 17.921875 C 49.765625 17.839844 50.179688 17.800781 50.601562 17.800781 C 51.019531 17.800781 51.433594 17.839844 51.84375 17.921875 C 52.253906 18.003906 52.652344 18.125 53.039062 18.285156 C 53.425781 18.445312 53.792969 18.640625 54.140625 18.875 C 54.488281 19.105469 54.8125 19.371094 55.109375 19.667969 C 55.402344 19.964844 55.667969 20.285156 55.902344 20.632812 C 56.132812 20.980469 56.328125 21.347656 56.488281 21.734375 C 56.648438 22.121094 56.769531 22.519531 56.851562 22.929688 C 56.933594 23.339844 56.976562 23.757812 56.976562 24.175781 Z M 56.976562 24.175781 "/>
<path style=" stroke:none;fill-rule:nonzero;fill:rgb(100%,100%,100%);fill-opacity:1;" d="M 56.976562 50.601562 C 56.976562 51.019531 56.933594 51.433594 56.851562 51.84375 C 56.769531 52.253906 56.648438 52.652344 56.488281 53.039062 C 56.328125 53.425781 56.132812 53.792969 55.902344 54.140625 C 55.667969 54.488281 55.402344 54.8125 55.109375 55.109375 C 54.8125 55.402344 54.488281 55.667969 54.140625 55.902344 C 53.792969 56.132812 53.425781 56.328125 53.039062 56.488281 C 52.652344 56.648438 52.253906 56.769531 51.84375 56.851562 C 51.433594 56.933594 51.019531 56.976562 50.601562 56.976562 C 50.179688 56.976562 49.765625 56.933594 49.355469 56.851562 C 48.945312 56.769531 48.546875 56.648438 48.160156 56.488281 C 47.773438 56.328125 47.40625 56.132812 47.058594 55.902344 C 46.710938 55.667969 46.386719 55.402344 46.09375 55.109375 C 45.796875 54.8125 45.53125 54.488281 45.300781 54.140625 C 45.066406 53.792969 44.871094 53.425781 44.710938 53.039062 C 44.550781 52.652344 44.429688 52.253906 44.347656 51.84375 C 44.265625 51.433594 44.226562 51.019531 44.226562 50.601562 C 44.226562 50.179688 44.265625 49.765625 44.347656 49.355469 C 44.429688 48.945312 44.550781 48.546875 44.710938 48.160156 C 44.871094 47.773438 45.066406 47.40625 45.300781 47.058594 C 45.53125 46.710938 45.796875 46.386719 46.09375 46.09375 C 46.386719 45.796875 46.710938 45.53125 47.058594 45.300781 C 47.40625 45.066406 47.773438 44.871094 48.160156 44.710938 C 48.546875 44.550781 48.945312 44.429688 49.355469 44.347656 C 49.765625 44.265625 50.179688 44.226562 50.601562 44.226562 C 51.019531 44.226562 51.433594 44.265625 51.84375 44.347656 C 52.253906 44.429688 52.652344 44.550781 53.039062 44.710938 C 53.425781 44.871094 53.792969 45.066406 54.140625 45.300781 C 54.488281 45.53125 54.8125 45.796875 55.109375 46.09375 C 55.402344 46.386719 55.667969 46.710938 55.902344 47.058594 C 56.132812 47.40625 56.328125 47.773438 56.488281 48.160156 C 56.648438 48.546875 56.769531 48.945312 56.851562 49.355469 C 56.933594 49.765625 56.976562 50.179688 56.976562 50.601562 Z M 56.976562 50.601562 "/>
<path style=" stroke:none;fill-rule:nonzero;fill:rgb(100%,100%,100%);fill-opacity:1;" d="M 30.550781 24.175781 C 30.550781 24.59375 30.507812 25.007812 30.425781 25.417969 C 30.34375 25.828125 30.226562 26.226562 30.066406 26.613281 C 29.90625 27 29.707031 27.367188 29.476562 27.714844 C 29.242188 28.066406 28.980469 28.386719 28.683594 28.683594 C 28.386719 28.980469 28.066406 29.242188 27.714844 29.476562 C 27.367188 29.707031 27 29.902344 26.613281 30.066406 C 26.226562 30.226562 25.828125 30.34375 25.417969 30.425781 C 25.007812 30.507812 24.59375 30.550781 24.175781 30.550781 C 23.757812 30.550781 23.339844 30.507812 22.929688 30.425781 C 22.519531 30.34375 22.121094 30.226562 21.734375 30.066406 C 21.347656 29.902344 20.980469 29.707031 20.632812 29.476562 C 20.285156 29.242188 19.964844 28.980469 19.667969 28.683594 C 19.371094 28.386719 19.105469 28.066406 18.875 27.714844 C 18.640625 27.367188 18.445312 27 18.285156 26.613281 C 18.125 26.226562 18.003906 25.828125 17.921875 25.417969 C 17.839844 25.007812 17.800781 24.59375 17.800781 24.175781 C 17.800781 23.757812 17.839844 23.339844 17.921875 22.929688 C 18.003906 22.519531 18.125 22.121094 18.285156 21.734375 C 18.445312 21.347656 18.640625 20.980469 18.875 20.632812 C 19.105469 20.285156 19.371094 19.964844 19.667969 19.667969 C 19.964844 19.371094 20.285156 19.105469 20.632812 18.875 C 20.980469 18.640625 21.347656 18.445312 21.734375 18.285156 C 22.121094 18.125 22.519531 18.003906 22.929688 17.921875 C 23.339844 17.839844 23.757812 17.800781 24.175781 17.800781 C 24.59375 17.800781 25.007812 17.839844 25.417969 17.921875 C 25.828125 18.003906 26.226562 18.125 26.613281 18.285156 C 27 18.445312 27.367188 18.640625 27.714844 18.875 C 28.066406 19.105469 28.386719 19.371094 28.683594 19.667969 C 28.980469 19.964844 29.242188 20.285156 29.476562 20.632812 C 29.707031 20.980469 29.90625 21.347656 30.066406 21.734375 C 30.226562 22.121094 30.34375 22.519531 30.425781 22.929688 C 30.507812 23.339844 30.550781 23.757812 30.550781 24.175781 Z M 30.550781 24.175781 "/>
</g>
</svg>
