<?xml version="1.0" encoding="UTF-8"?>
<svg xmlns="http://www.w3.org/2000/svg" xmlns:xlink="http://www.w3.org/1999/xlink" width="75px" height="74.999997px" viewBox="0 0 75 74.999997" version="1.2">
<defs>
<clipPath id="clip1">
  <path d="M 3.898438 3.898438 L 71.398438 3.898438 L 71.398438 71.398438 L 3.898438 71.398438 Z M 3.898438 3.898438 "/>
</clipPath>
</defs>
<g id="surface1">
<g clip-path="url(#clip1)" clip-rule="nonzero">
<path style=" stroke:none;fill-rule:nonzero;fill:rgb(100%,100%,100%);fill-opacity:1;" d="M 61.179688 71.398438 L 14.117188 71.398438 C 8.484375 71.398438 3.898438 66.816406 3.898438 61.179688 L 3.898438 14.117188 C 3.898438 8.484375 8.484375 3.898438 14.117188 3.898438 L 61.179688 3.898438 C 66.816406 3.898438 71.398438 8.484375 71.398438 14.117188 L 71.398438 61.179688 C 71.398438 66.816406 66.816406 71.398438 61.179688 71.398438 Z M 14.117188 8.398438 C 10.964844 8.398438 8.398438 10.964844 8.398438 14.117188 L 8.398438 61.179688 C 8.398438 64.335938 10.964844 66.898438 14.117188 66.898438 L 61.179688 66.898438 C 64.335938 66.898438 66.898438 64.335938 66.898438 61.179688 L 66.898438 14.117188 C 66.898438 10.964844 64.335938 8.398438 61.179688 8.398438 Z M 14.117188 8.398438 "/>
</g>
<path style=" stroke:none;fill-rule:nonzero;fill:rgb(100%,100%,100%);fill-opacity:1;" d="M 30.8125 50.863281 C 30.8125 51.28125 30.769531 51.695312 30.691406 52.105469 C 30.609375 52.515625 30.488281 52.914062 30.328125 53.300781 C 30.167969 53.6875 29.96875 54.054688 29.738281 54.40625 C 29.503906 54.753906 29.242188 55.074219 28.945312 55.371094 C 28.648438 55.667969 28.328125 55.929688 27.980469 56.164062 C 27.632812 56.394531 27.261719 56.59375 26.875 56.753906 C 26.488281 56.914062 26.089844 57.035156 25.679688 57.113281 C 25.269531 57.195312 24.855469 57.238281 24.4375 57.238281 C 24.019531 57.238281 23.605469 57.195312 23.195312 57.113281 C 22.78125 57.035156 22.382812 56.914062 21.996094 56.753906 C 21.609375 56.59375 21.242188 56.394531 20.894531 56.164062 C 20.546875 55.929688 20.226562 55.667969 19.929688 55.371094 C 19.632812 55.074219 19.371094 54.753906 19.136719 54.40625 C 18.902344 54.054688 18.707031 53.6875 18.546875 53.300781 C 18.386719 52.914062 18.265625 52.515625 18.183594 52.105469 C 18.101562 51.695312 18.0625 51.28125 18.0625 50.863281 C 18.0625 50.445312 18.101562 50.03125 18.183594 49.617188 C 18.265625 49.207031 18.386719 48.808594 18.546875 48.421875 C 18.707031 48.035156 18.902344 47.667969 19.136719 47.320312 C 19.371094 46.972656 19.632812 46.652344 19.929688 46.355469 C 20.226562 46.058594 20.546875 45.792969 20.894531 45.5625 C 21.242188 45.328125 21.609375 45.132812 21.996094 44.972656 C 22.382812 44.8125 22.78125 44.691406 23.195312 44.609375 C 23.605469 44.527344 24.019531 44.488281 24.4375 44.488281 C 24.855469 44.488281 25.269531 44.527344 25.679688 44.609375 C 26.089844 44.691406 26.488281 44.8125 26.875 44.972656 C 27.261719 45.132812 27.632812 45.328125 27.980469 45.5625 C 28.328125 45.792969 28.648438 46.058594 28.945312 46.355469 C 29.242188 46.652344 29.503906 46.972656 29.738281 47.320312 C 29.96875 47.667969 30.167969 48.035156 30.328125 48.421875 C 30.488281 48.808594 30.609375 49.207031 30.691406 49.617188 C 30.769531 50.03125 30.8125 50.445312 30.8125 50.863281 Z M 30.8125 50.863281 "/>
<path style=" stroke:none;fill-rule:nonzero;fill:rgb(100%,100%,100%);fill-opacity:1;" d="M 57.238281 24.4375 C 57.238281 24.855469 57.195312 25.269531 57.113281 25.679688 C 57.035156 26.089844 56.914062 26.488281 56.753906 26.875 C 56.59375 27.261719 56.394531 27.632812 56.164062 27.980469 C 55.929688 28.328125 55.667969 28.648438 55.371094 28.945312 C 55.074219 29.242188 54.753906 29.503906 54.40625 29.738281 C 54.054688 29.96875 53.6875 30.167969 53.300781 30.328125 C 52.914062 30.488281 52.515625 30.609375 52.105469 30.691406 C 51.695312 30.769531 51.28125 30.8125 50.863281 30.8125 C 50.445312 30.8125 50.03125 30.769531 49.617188 30.691406 C 49.207031 30.609375 48.808594 30.488281 48.421875 30.328125 C 48.035156 30.167969 47.667969 29.96875 47.320312 29.738281 C 46.972656 29.503906 46.652344 29.242188 46.355469 28.945312 C 46.058594 28.648438 45.792969 28.328125 45.5625 27.980469 C 45.328125 27.632812 45.132812 27.261719 44.972656 26.875 C 44.8125 26.488281 44.691406 26.089844 44.609375 25.679688 C 44.527344 25.269531 44.488281 24.855469 44.488281 24.4375 C 44.488281 24.019531 44.527344 23.605469 44.609375 23.195312 C 44.691406 22.78125 44.8125 22.382812 44.972656 21.996094 C 45.132812 21.609375 45.328125 21.242188 45.5625 20.894531 C 45.792969 20.546875 46.058594 20.226562 46.355469 19.929688 C 46.652344 19.632812 46.972656 19.371094 47.320312 19.136719 C 47.667969 18.902344 48.035156 18.707031 48.421875 18.546875 C 48.808594 18.386719 49.207031 18.265625 49.617188 18.183594 C 50.03125 18.101562 50.445312 18.0625 50.863281 18.0625 C 51.28125 18.0625 51.695312 18.101562 52.105469 18.183594 C 52.515625 18.265625 52.914062 18.386719 53.300781 18.546875 C 53.6875 18.707031 54.054688 18.902344 54.40625 19.136719 C 54.753906 19.371094 55.074219 19.632812 55.371094 19.929688 C 55.667969 20.226562 55.929688 20.546875 56.164062 20.894531 C 56.394531 21.242188 56.59375 21.609375 56.753906 21.996094 C 56.914062 22.382812 57.035156 22.78125 57.113281 23.195312 C 57.195312 23.605469 57.238281 24.019531 57.238281 24.4375 Z M 57.238281 24.4375 "/>
</g>
</svg>
