<?xml version="1.0" encoding="UTF-8"?>
<svg xmlns="http://www.w3.org/2000/svg" xmlns:xlink="http://www.w3.org/1999/xlink" width="75px" height="74.999997px" viewBox="0 0 75 74.999997" version="1.2">
<defs>
<clipPath id="clip1">
  <path d="M 3.75 3.75 L 71.25 3.75 L 71.25 71.25 L 3.75 71.25 Z M 3.75 3.75 "/>
</clipPath>
</defs>
<g id="surface1">
<g clip-path="url(#clip1)" clip-rule="nonzero">
<path style=" stroke:none;fill-rule:nonzero;fill:rgb(100%,100%,100%);fill-opacity:1;" d="M 61.03125 71.25 L 13.96875 71.25 C 8.335938 71.25 3.75 66.664062 3.75 61.03125 L 3.75 13.96875 C 3.75 8.335938 8.335938 3.75 13.96875 3.75 L 61.03125 3.75 C 66.664062 3.75 71.25 8.335938 71.25 13.96875 L 71.25 61.03125 C 71.25 66.664062 66.664062 71.25 61.03125 71.25 Z M 13.96875 8.25 C 10.816406 8.25 8.25 10.816406 8.25 13.96875 L 8.25 61.03125 C 8.25 64.183594 10.816406 66.75 13.96875 66.75 L 61.03125 66.75 C 64.183594 66.75 66.75 64.183594 66.75 61.03125 L 66.75 13.96875 C 66.75 10.816406 64.183594 8.25 61.03125 8.25 Z M 13.96875 8.25 "/>
</g>
<path style=" stroke:none;fill-rule:nonzero;fill:rgb(100%,100%,100%);fill-opacity:1;" d="M 24.898438 49.441406 C 21.5625 49.441406 18.847656 52.15625 18.847656 55.492188 C 18.847656 58.828125 21.5625 61.542969 24.898438 61.542969 C 28.238281 61.542969 30.953125 58.828125 30.953125 55.492188 C 30.953125 52.15625 28.238281 49.441406 24.898438 49.441406 Z M 24.898438 49.441406 "/>
<path style=" stroke:none;fill-rule:nonzero;fill:rgb(100%,100%,100%);fill-opacity:1;" d="M 24.898438 13.457031 C 21.5625 13.457031 18.847656 16.171875 18.847656 19.507812 C 18.847656 22.84375 21.5625 25.558594 24.898438 25.558594 C 28.238281 25.558594 30.953125 22.84375 30.953125 19.507812 C 30.953125 16.171875 28.238281 13.457031 24.898438 13.457031 Z M 24.898438 13.457031 "/>
<path style=" stroke:none;fill-rule:nonzero;fill:rgb(100%,100%,100%);fill-opacity:1;" d="M 24.898438 31.449219 C 21.5625 31.449219 18.847656 34.164062 18.847656 37.5 C 18.847656 40.835938 21.5625 43.550781 24.898438 43.550781 C 28.238281 43.550781 30.953125 40.835938 30.953125 37.5 C 30.953125 34.164062 28.238281 31.449219 24.898438 31.449219 Z M 24.898438 31.449219 "/>
<path style=" stroke:none;fill-rule:nonzero;fill:rgb(100%,100%,100%);fill-opacity:1;" d="M 50.101562 49.441406 C 46.761719 49.441406 44.046875 52.15625 44.046875 55.492188 C 44.046875 58.828125 46.761719 61.542969 50.101562 61.542969 C 53.4375 61.542969 56.152344 58.828125 56.152344 55.492188 C 56.152344 52.15625 53.4375 49.441406 50.101562 49.441406 Z M 50.101562 49.441406 "/>
<path style=" stroke:none;fill-rule:nonzero;fill:rgb(100%,100%,100%);fill-opacity:1;" d="M 50.101562 25.558594 C 53.4375 25.558594 56.152344 22.84375 56.152344 19.507812 C 56.152344 16.171875 53.4375 13.457031 50.101562 13.457031 C 46.761719 13.457031 44.046875 16.171875 44.046875 19.507812 C 44.046875 22.84375 46.761719 25.558594 50.101562 25.558594 Z M 50.101562 25.558594 "/>
<path style=" stroke:none;fill-rule:nonzero;fill:rgb(100%,100%,100%);fill-opacity:1;" d="M 50.101562 31.449219 C 46.761719 31.449219 44.046875 34.164062 44.046875 37.5 C 44.046875 40.835938 46.761719 43.550781 50.101562 43.550781 C 53.4375 43.550781 56.152344 40.835938 56.152344 37.5 C 56.152344 34.164062 53.4375 31.449219 50.101562 31.449219 Z M 50.101562 31.449219 "/>
</g>
</svg>
