<?xml version="1.0" encoding="UTF-8"?>
<svg xmlns="http://www.w3.org/2000/svg" xmlns:xlink="http://www.w3.org/1999/xlink" width="75px" height="74.999997px" viewBox="0 0 75 74.999997" version="1.2">
<defs>
<clipPath id="clip1">
  <path d="M 3.75 3.75 L 71.25 3.75 L 71.25 71.25 L 3.75 71.25 Z M 3.75 3.75 "/>
</clipPath>
</defs>
<g id="surface1">
<g clip-path="url(#clip1)" clip-rule="nonzero">
<path style=" stroke:none;fill-rule:nonzero;fill:rgb(100%,100%,100%);fill-opacity:1;" d="M 61.03125 71.25 L 13.96875 71.25 C 8.335938 71.25 3.75 66.664062 3.75 61.03125 L 3.75 13.96875 C 3.75 8.335938 8.335938 3.75 13.96875 3.75 L 61.03125 3.75 C 66.664062 3.75 71.25 8.335938 71.25 13.96875 L 71.25 61.03125 C 71.25 66.664062 66.664062 71.25 61.03125 71.25 Z M 13.96875 8.25 C 10.816406 8.25 8.25 10.816406 8.25 13.96875 L 8.25 61.03125 C 8.25 64.183594 10.816406 66.75 13.96875 66.75 L 61.03125 66.75 C 64.183594 66.75 66.75 64.183594 66.75 61.03125 L 66.75 13.96875 C 66.75 10.816406 64.183594 8.25 61.03125 8.25 Z M 13.96875 8.25 "/>
</g>
<path style=" stroke:none;fill-rule:nonzero;fill:rgb(100%,100%,100%);fill-opacity:1;" d="M 29.164062 52.210938 C 29.164062 52.632812 29.121094 53.046875 29.039062 53.457031 C 28.957031 53.867188 28.835938 54.265625 28.675781 54.652344 C 28.515625 55.039062 28.320312 55.40625 28.085938 55.753906 C 27.855469 56.101562 27.589844 56.425781 27.296875 56.71875 C 27 57.015625 26.675781 57.28125 26.328125 57.511719 C 25.980469 57.746094 25.613281 57.941406 25.226562 58.101562 C 24.839844 58.261719 24.441406 58.382812 24.03125 58.464844 C 23.621094 58.546875 23.207031 58.585938 22.789062 58.585938 C 22.367188 58.585938 21.953125 58.546875 21.542969 58.464844 C 21.132812 58.382812 20.734375 58.261719 20.347656 58.101562 C 19.960938 57.941406 19.59375 57.746094 19.246094 57.511719 C 18.898438 57.28125 18.574219 57.015625 18.28125 56.71875 C 17.984375 56.425781 17.71875 56.101562 17.488281 55.753906 C 17.253906 55.40625 17.058594 55.039062 16.898438 54.652344 C 16.738281 54.265625 16.617188 53.867188 16.535156 53.457031 C 16.453125 53.046875 16.414062 52.632812 16.414062 52.210938 C 16.414062 51.792969 16.453125 51.378906 16.535156 50.96875 C 16.617188 50.558594 16.738281 50.160156 16.898438 49.773438 C 17.058594 49.386719 17.253906 49.019531 17.488281 48.671875 C 17.71875 48.324219 17.984375 48 18.28125 47.703125 C 18.574219 47.410156 18.898438 47.144531 19.246094 46.914062 C 19.59375 46.679688 19.960938 46.484375 20.347656 46.324219 C 20.734375 46.164062 21.132812 46.042969 21.542969 45.960938 C 21.953125 45.878906 22.367188 45.835938 22.789062 45.835938 C 23.207031 45.835938 23.621094 45.878906 24.03125 45.960938 C 24.441406 46.042969 24.839844 46.164062 25.226562 46.324219 C 25.613281 46.484375 25.980469 46.679688 26.328125 46.914062 C 26.675781 47.144531 27 47.410156 27.296875 47.703125 C 27.589844 48 27.855469 48.324219 28.085938 48.671875 C 28.320312 49.019531 28.515625 49.386719 28.675781 49.773438 C 28.835938 50.160156 28.957031 50.558594 29.039062 50.96875 C 29.121094 51.378906 29.164062 51.792969 29.164062 52.210938 Z M 29.164062 52.210938 "/>
<path style=" stroke:none;fill-rule:nonzero;fill:rgb(100%,100%,100%);fill-opacity:1;" d="M 58.585938 22.789062 C 58.585938 23.207031 58.546875 23.621094 58.464844 24.03125 C 58.382812 24.441406 58.261719 24.839844 58.101562 25.226562 C 57.941406 25.613281 57.746094 25.980469 57.511719 26.328125 C 57.28125 26.675781 57.015625 27 56.71875 27.296875 C 56.425781 27.589844 56.101562 27.855469 55.753906 28.085938 C 55.40625 28.320312 55.039062 28.515625 54.652344 28.675781 C 54.265625 28.835938 53.867188 28.957031 53.457031 29.039062 C 53.046875 29.121094 52.632812 29.164062 52.210938 29.164062 C 51.792969 29.164062 51.378906 29.121094 50.96875 29.039062 C 50.558594 28.957031 50.160156 28.835938 49.773438 28.675781 C 49.386719 28.515625 49.019531 28.320312 48.671875 28.085938 C 48.324219 27.855469 48 27.589844 47.703125 27.296875 C 47.410156 27 47.144531 26.675781 46.914062 26.328125 C 46.679688 25.980469 46.484375 25.613281 46.324219 25.226562 C 46.164062 24.839844 46.042969 24.441406 45.960938 24.03125 C 45.878906 23.621094 45.835938 23.207031 45.835938 22.789062 C 45.835938 22.367188 45.878906 21.953125 45.960938 21.542969 C 46.042969 21.132812 46.164062 20.734375 46.324219 20.347656 C 46.484375 19.960938 46.679688 19.59375 46.914062 19.246094 C 47.144531 18.898438 47.410156 18.574219 47.703125 18.28125 C 48 17.984375 48.324219 17.71875 48.671875 17.488281 C 49.019531 17.253906 49.386719 17.058594 49.773438 16.898438 C 50.160156 16.738281 50.558594 16.617188 50.96875 16.535156 C 51.378906 16.453125 51.792969 16.414062 52.210938 16.414062 C 52.632812 16.414062 53.046875 16.453125 53.457031 16.535156 C 53.867188 16.617188 54.265625 16.738281 54.652344 16.898438 C 55.039062 17.058594 55.40625 17.253906 55.753906 17.488281 C 56.101562 17.71875 56.425781 17.984375 56.71875 18.28125 C 57.015625 18.574219 57.28125 18.898438 57.511719 19.246094 C 57.746094 19.59375 57.941406 19.960938 58.101562 20.347656 C 58.261719 20.734375 58.382812 21.132812 58.464844 21.542969 C 58.546875 21.953125 58.585938 22.367188 58.585938 22.789062 Z M 58.585938 22.789062 "/>
<path style=" stroke:none;fill-rule:nonzero;fill:rgb(100%,100%,100%);fill-opacity:1;" d="M 58.585938 52.210938 C 58.585938 52.632812 58.546875 53.046875 58.464844 53.457031 C 58.382812 53.867188 58.261719 54.265625 58.101562 54.652344 C 57.941406 55.039062 57.746094 55.40625 57.511719 55.753906 C 57.28125 56.101562 57.015625 56.425781 56.71875 56.71875 C 56.425781 57.015625 56.101562 57.28125 55.753906 57.511719 C 55.40625 57.746094 55.039062 57.941406 54.652344 58.101562 C 54.265625 58.261719 53.867188 58.382812 53.457031 58.464844 C 53.046875 58.546875 52.632812 58.585938 52.210938 58.585938 C 51.792969 58.585938 51.378906 58.546875 50.96875 58.464844 C 50.558594 58.382812 50.160156 58.261719 49.773438 58.101562 C 49.386719 57.941406 49.019531 57.746094 48.671875 57.511719 C 48.324219 57.28125 48 57.015625 47.703125 56.71875 C 47.410156 56.425781 47.144531 56.101562 46.914062 55.753906 C 46.679688 55.40625 46.484375 55.039062 46.324219 54.652344 C 46.164062 54.265625 46.042969 53.867188 45.960938 53.457031 C 45.878906 53.046875 45.835938 52.632812 45.835938 52.210938 C 45.835938 51.792969 45.878906 51.378906 45.960938 50.96875 C 46.042969 50.558594 46.164062 50.160156 46.324219 49.773438 C 46.484375 49.386719 46.679688 49.019531 46.914062 48.671875 C 47.144531 48.324219 47.410156 48 47.703125 47.703125 C 48 47.410156 48.324219 47.144531 48.671875 46.914062 C 49.019531 46.679688 49.386719 46.484375 49.773438 46.324219 C 50.160156 46.164062 50.558594 46.042969 50.96875 45.960938 C 51.378906 45.878906 51.792969 45.835938 52.210938 45.835938 C 52.632812 45.835938 53.046875 45.878906 53.457031 45.960938 C 53.867188 46.042969 54.265625 46.164062 54.652344 46.324219 C 55.039062 46.484375 55.40625 46.679688 55.753906 46.914062 C 56.101562 47.144531 56.425781 47.410156 56.71875 47.703125 C 57.015625 48 57.28125 48.324219 57.511719 48.671875 C 57.746094 49.019531 57.941406 49.386719 58.101562 49.773438 C 58.261719 50.160156 58.382812 50.558594 58.464844 50.96875 C 58.546875 51.378906 58.585938 51.792969 58.585938 52.210938 Z M 58.585938 52.210938 "/>
<path style=" stroke:none;fill-rule:nonzero;fill:rgb(100%,100%,100%);fill-opacity:1;" d="M 29.164062 22.789062 C 29.164062 23.207031 29.121094 23.621094 29.039062 24.03125 C 28.957031 24.441406 28.835938 24.839844 28.675781 25.226562 C 28.515625 25.613281 28.320312 25.980469 28.085938 26.328125 C 27.855469 26.675781 27.589844 27 27.296875 27.296875 C 27 27.589844 26.675781 27.855469 26.328125 28.085938 C 25.980469 28.320312 25.613281 28.515625 25.226562 28.675781 C 24.839844 28.835938 24.441406 28.957031 24.03125 29.039062 C 23.621094 29.121094 23.207031 29.164062 22.789062 29.164062 C 22.367188 29.164062 21.953125 29.121094 21.542969 29.039062 C 21.132812 28.957031 20.734375 28.835938 20.347656 28.675781 C 19.960938 28.515625 19.59375 28.320312 19.246094 28.085938 C 18.898438 27.855469 18.574219 27.589844 18.28125 27.296875 C 17.984375 27 17.71875 26.675781 17.488281 26.328125 C 17.253906 25.980469 17.058594 25.613281 16.898438 25.226562 C 16.738281 24.839844 16.617188 24.441406 16.535156 24.03125 C 16.453125 23.621094 16.414062 23.207031 16.414062 22.789062 C 16.414062 22.367188 16.453125 21.953125 16.535156 21.542969 C 16.617188 21.132812 16.738281 20.734375 16.898438 20.347656 C 17.058594 19.960938 17.253906 19.59375 17.488281 19.246094 C 17.71875 18.898438 17.984375 18.574219 18.28125 18.28125 C 18.574219 17.984375 18.898438 17.71875 19.246094 17.488281 C 19.59375 17.253906 19.960938 17.058594 20.347656 16.898438 C 20.734375 16.738281 21.132812 16.617188 21.542969 16.535156 C 21.953125 16.453125 22.367188 16.414062 22.789062 16.414062 C 23.207031 16.414062 23.621094 16.453125 24.03125 16.535156 C 24.441406 16.617188 24.839844 16.738281 25.226562 16.898438 C 25.613281 17.058594 25.980469 17.253906 26.328125 17.488281 C 26.675781 17.71875 27 17.984375 27.296875 18.28125 C 27.589844 18.574219 27.855469 18.898438 28.085938 19.246094 C 28.320312 19.59375 28.515625 19.960938 28.675781 20.347656 C 28.835938 20.734375 28.957031 21.132812 29.039062 21.542969 C 29.121094 21.953125 29.164062 22.367188 29.164062 22.789062 Z M 29.164062 22.789062 "/>
<path style=" stroke:none;fill-rule:nonzero;fill:rgb(100%,100%,100%);fill-opacity:1;" d="M 43.875 37.5 C 43.875 37.917969 43.835938 38.332031 43.753906 38.742188 C 43.671875 39.152344 43.550781 39.554688 43.390625 39.941406 C 43.230469 40.328125 43.03125 40.695312 42.800781 41.042969 C 42.566406 41.390625 42.304688 41.710938 42.007812 42.007812 C 41.710938 42.304688 41.390625 42.566406 41.042969 42.800781 C 40.695312 43.03125 40.328125 43.230469 39.941406 43.390625 C 39.554688 43.550781 39.152344 43.671875 38.742188 43.753906 C 38.332031 43.835938 37.917969 43.875 37.5 43.875 C 37.082031 43.875 36.667969 43.835938 36.257812 43.753906 C 35.847656 43.671875 35.445312 43.550781 35.058594 43.390625 C 34.671875 43.230469 34.304688 43.03125 33.957031 42.800781 C 33.609375 42.566406 33.289062 42.304688 32.992188 42.007812 C 32.695312 41.710938 32.433594 41.390625 32.199219 41.042969 C 31.96875 40.695312 31.769531 40.328125 31.609375 39.941406 C 31.449219 39.554688 31.328125 39.152344 31.246094 38.742188 C 31.164062 38.332031 31.125 37.917969 31.125 37.5 C 31.125 37.082031 31.164062 36.667969 31.246094 36.257812 C 31.328125 35.847656 31.449219 35.445312 31.609375 35.058594 C 31.769531 34.671875 31.96875 34.304688 32.199219 33.957031 C 32.433594 33.609375 32.695312 33.289062 32.992188 32.992188 C 33.289062 32.695312 33.609375 32.433594 33.957031 32.199219 C 34.304688 31.96875 34.671875 31.769531 35.058594 31.609375 C 35.445312 31.449219 35.847656 31.328125 36.257812 31.246094 C 36.667969 31.164062 37.082031 31.125 37.5 31.125 C 37.917969 31.125 38.332031 31.164062 38.742188 31.246094 C 39.152344 31.328125 39.554688 31.449219 39.941406 31.609375 C 40.328125 31.769531 40.695312 31.96875 41.042969 32.199219 C 41.390625 32.433594 41.710938 32.695312 42.007812 32.992188 C 42.304688 33.289062 42.566406 33.609375 42.800781 33.957031 C 43.03125 34.304688 43.230469 34.671875 43.390625 35.058594 C 43.550781 35.445312 43.671875 35.847656 43.753906 36.257812 C 43.835938 36.667969 43.875 37.082031 43.875 37.5 Z M 43.875 37.5 "/>
</g>
</svg>
