<?xml version="1.0" encoding="UTF-8"?>
<svg xmlns="http://www.w3.org/2000/svg" xmlns:xlink="http://www.w3.org/1999/xlink" width="75px" height="74.999997px" viewBox="0 0 75 74.999997" version="1.2">
<defs>
<clipPath id="clip1">
  <path d="M 3.898438 3.898438 L 71.398438 3.898438 L 71.398438 71.398438 L 3.898438 71.398438 Z M 3.898438 3.898438 "/>
</clipPath>
</defs>
<g id="surface1">
<g clip-path="url(#clip1)" clip-rule="nonzero">
<path style=" stroke:none;fill-rule:nonzero;fill:rgb(100%,100%,100%);fill-opacity:1;" d="M 61.179688 71.398438 L 14.117188 71.398438 C 8.484375 71.398438 3.898438 66.816406 3.898438 61.179688 L 3.898438 14.117188 C 3.898438 8.484375 8.484375 3.898438 14.117188 3.898438 L 61.179688 3.898438 C 66.816406 3.898438 71.398438 8.484375 71.398438 14.117188 L 71.398438 61.179688 C 71.398438 66.816406 66.816406 71.398438 61.179688 71.398438 Z M 14.117188 8.398438 C 10.964844 8.398438 8.398438 10.964844 8.398438 14.117188 L 8.398438 61.179688 C 8.398438 64.335938 10.964844 66.898438 14.117188 66.898438 L 61.179688 66.898438 C 64.335938 66.898438 66.898438 64.335938 66.898438 61.179688 L 66.898438 14.117188 C 66.898438 10.964844 64.335938 8.398438 61.179688 8.398438 Z M 14.117188 8.398438 "/>
</g>
<path style=" stroke:none;fill-rule:nonzero;fill:rgb(100%,100%,100%);fill-opacity:1;" d="M 29.3125 52.363281 C 29.3125 52.78125 29.269531 53.195312 29.191406 53.605469 C 29.109375 54.015625 28.988281 54.414062 28.828125 54.800781 C 28.667969 55.1875 28.46875 55.554688 28.238281 55.90625 C 28.003906 56.253906 27.742188 56.574219 27.445312 56.871094 C 27.148438 57.167969 26.828125 57.429688 26.480469 57.664062 C 26.132812 57.894531 25.761719 58.09375 25.375 58.253906 C 24.988281 58.414062 24.589844 58.535156 24.179688 58.613281 C 23.769531 58.695312 23.355469 58.738281 22.9375 58.738281 C 22.519531 58.738281 22.105469 58.695312 21.695312 58.613281 C 21.28125 58.535156 20.882812 58.414062 20.496094 58.253906 C 20.109375 58.09375 19.742188 57.894531 19.394531 57.664062 C 19.046875 57.429688 18.726562 57.167969 18.429688 56.871094 C 18.132812 56.574219 17.871094 56.253906 17.636719 55.90625 C 17.402344 55.554688 17.207031 55.1875 17.046875 54.800781 C 16.886719 54.414062 16.765625 54.015625 16.683594 53.605469 C 16.601562 53.195312 16.5625 52.78125 16.5625 52.363281 C 16.5625 51.945312 16.601562 51.53125 16.683594 51.117188 C 16.765625 50.707031 16.886719 50.308594 17.046875 49.921875 C 17.207031 49.535156 17.402344 49.167969 17.636719 48.820312 C 17.871094 48.472656 18.132812 48.152344 18.429688 47.855469 C 18.726562 47.558594 19.046875 47.292969 19.394531 47.0625 C 19.742188 46.828125 20.109375 46.632812 20.496094 46.472656 C 20.882812 46.3125 21.28125 46.191406 21.695312 46.109375 C 22.105469 46.027344 22.519531 45.988281 22.9375 45.988281 C 23.355469 45.988281 23.769531 46.027344 24.179688 46.109375 C 24.589844 46.191406 24.988281 46.3125 25.375 46.472656 C 25.761719 46.632812 26.132812 46.828125 26.480469 47.0625 C 26.828125 47.292969 27.148438 47.558594 27.445312 47.855469 C 27.742188 48.152344 28.003906 48.472656 28.238281 48.820312 C 28.46875 49.167969 28.667969 49.535156 28.828125 49.921875 C 28.988281 50.308594 29.109375 50.707031 29.191406 51.117188 C 29.269531 51.53125 29.3125 51.945312 29.3125 52.363281 Z M 29.3125 52.363281 "/>
<path style=" stroke:none;fill-rule:nonzero;fill:rgb(100%,100%,100%);fill-opacity:1;" d="M 58.738281 22.9375 C 58.738281 23.355469 58.695312 23.769531 58.613281 24.179688 C 58.535156 24.589844 58.414062 24.988281 58.253906 25.375 C 58.09375 25.761719 57.894531 26.132812 57.664062 26.480469 C 57.429688 26.828125 57.167969 27.148438 56.871094 27.445312 C 56.574219 27.742188 56.253906 28.003906 55.90625 28.238281 C 55.554688 28.46875 55.1875 28.667969 54.800781 28.828125 C 54.414062 28.988281 54.015625 29.109375 53.605469 29.191406 C 53.195312 29.269531 52.78125 29.3125 52.363281 29.3125 C 51.945312 29.3125 51.53125 29.269531 51.117188 29.191406 C 50.707031 29.109375 50.308594 28.988281 49.921875 28.828125 C 49.535156 28.667969 49.167969 28.46875 48.820312 28.238281 C 48.472656 28.003906 48.152344 27.742188 47.855469 27.445312 C 47.558594 27.148438 47.292969 26.828125 47.0625 26.480469 C 46.828125 26.132812 46.632812 25.761719 46.472656 25.375 C 46.3125 24.988281 46.191406 24.589844 46.109375 24.179688 C 46.027344 23.769531 45.988281 23.355469 45.988281 22.9375 C 45.988281 22.519531 46.027344 22.105469 46.109375 21.695312 C 46.191406 21.28125 46.3125 20.882812 46.472656 20.496094 C 46.632812 20.109375 46.828125 19.742188 47.0625 19.394531 C 47.292969 19.046875 47.558594 18.726562 47.855469 18.429688 C 48.152344 18.132812 48.472656 17.871094 48.820312 17.636719 C 49.167969 17.402344 49.535156 17.207031 49.921875 17.046875 C 50.308594 16.886719 50.707031 16.765625 51.117188 16.683594 C 51.53125 16.601562 51.945312 16.5625 52.363281 16.5625 C 52.78125 16.5625 53.195312 16.601562 53.605469 16.683594 C 54.015625 16.765625 54.414062 16.886719 54.800781 17.046875 C 55.1875 17.207031 55.554688 17.402344 55.90625 17.636719 C 56.253906 17.871094 56.574219 18.132812 56.871094 18.429688 C 57.167969 18.726562 57.429688 19.046875 57.664062 19.394531 C 57.894531 19.742188 58.09375 20.109375 58.253906 20.496094 C 58.414062 20.882812 58.535156 21.28125 58.613281 21.695312 C 58.695312 22.105469 58.738281 22.519531 58.738281 22.9375 Z M 58.738281 22.9375 "/>
<path style=" stroke:none;fill-rule:nonzero;fill:rgb(100%,100%,100%);fill-opacity:1;" d="M 44.023438 37.648438 C 44.023438 38.070312 43.984375 38.484375 43.902344 38.894531 C 43.820312 39.304688 43.699219 39.703125 43.539062 40.089844 C 43.378906 40.476562 43.183594 40.84375 42.949219 41.191406 C 42.71875 41.539062 42.453125 41.863281 42.15625 42.15625 C 41.863281 42.453125 41.539062 42.71875 41.191406 42.949219 C 40.84375 43.183594 40.476562 43.378906 40.089844 43.539062 C 39.703125 43.699219 39.304688 43.820312 38.894531 43.902344 C 38.484375 43.984375 38.070312 44.023438 37.648438 44.023438 C 37.230469 44.023438 36.816406 43.984375 36.40625 43.902344 C 35.996094 43.820312 35.597656 43.699219 35.210938 43.539062 C 34.824219 43.378906 34.457031 43.183594 34.109375 42.949219 C 33.761719 42.71875 33.4375 42.453125 33.140625 42.15625 C 32.847656 41.863281 32.582031 41.539062 32.347656 41.191406 C 32.117188 40.84375 31.921875 40.476562 31.761719 40.089844 C 31.601562 39.703125 31.480469 39.304688 31.398438 38.894531 C 31.316406 38.484375 31.273438 38.070312 31.273438 37.648438 C 31.273438 37.230469 31.316406 36.816406 31.398438 36.40625 C 31.480469 35.996094 31.601562 35.597656 31.761719 35.210938 C 31.921875 34.824219 32.117188 34.457031 32.347656 34.109375 C 32.582031 33.761719 32.847656 33.4375 33.140625 33.140625 C 33.4375 32.847656 33.761719 32.582031 34.109375 32.347656 C 34.457031 32.117188 34.824219 31.921875 35.210938 31.761719 C 35.597656 31.601562 35.996094 31.480469 36.40625 31.398438 C 36.816406 31.316406 37.230469 31.273438 37.648438 31.273438 C 38.070312 31.273438 38.484375 31.316406 38.894531 31.398438 C 39.304688 31.480469 39.703125 31.601562 40.089844 31.761719 C 40.476562 31.921875 40.84375 32.117188 41.191406 32.347656 C 41.539062 32.582031 41.863281 32.847656 42.15625 33.140625 C 42.453125 33.4375 42.71875 33.761719 42.949219 34.109375 C 43.183594 34.457031 43.378906 34.824219 43.539062 35.210938 C 43.699219 35.597656 43.820312 35.996094 43.902344 36.40625 C 43.984375 36.816406 44.023438 37.230469 44.023438 37.648438 Z M 44.023438 37.648438 "/>
</g>
</svg>
